<svg width="256" height="256" viewBox="0 0 256 256" fill="none" xmlns="http://www.w3.org/2000/svg">
<path d="M147.133 45.6201L139.748 49.9486L139.771 27.5789L135.295 25L115.027 36.7018L114.993 64.2975L103.177 70.9891L129.626 88.1442L151.609 48.1991L147.133 45.6201Z" fill="#37474F"/>
<path d="M119.503 39.2807L119.469 66.8765L107.654 73.5794L129.626 88.1442L151.609 48.1991L139.737 55.1747L139.771 27.5789L119.503 39.2807Z" fill="#EF4C00"/>
<path d="M115.027 36.7018L119.503 39.2808L119.469 66.8765L114.993 64.2976L115.027 36.7018Z" fill="#263238"/>
<path d="M106.358 231.133L170.411 194.154L165.072 117.104L106.358 151.005V231.133Z" fill="#EF4C00"/>
<path opacity="0.6" d="M106.358 231.133L170.411 194.154L165.072 117.104L106.358 151.005V231.133Z" fill="white"/>
<path d="M106.359 151.005V144.836L90.3398 141.757L149.053 107.856L154.393 117.104H165.072L106.359 151.005Z" fill="#EF4C00"/>
<path opacity="0.3" d="M106.359 151.005V144.836L90.3398 141.757L149.053 107.856L154.393 117.104H165.072L106.359 151.005Z" fill="white"/>
<path d="M149.053 107.856V126.351L154.393 123.273V117.104L149.053 107.856Z" fill="#EF4C00"/>
<path opacity="0.1" d="M149.053 107.856V126.351L154.393 123.273V117.104L149.053 107.856Z" fill="black"/>
<path d="M165.072 117.104H154.393V123.273L165.072 117.104Z" fill="#EF4C00"/>
<path opacity="0.2" d="M165.072 117.104H154.393V123.273L165.072 117.104Z" fill="black"/>
<path d="M90.3396 141.757L85 218.807L106.359 231.134V151.005V144.836L90.3396 141.757Z" fill="#EF4C00"/>
<path opacity="0.1" d="M90.3396 141.757L85 218.807L106.359 231.134V151.005V144.836L90.3396 141.757Z" fill="black"/>
<path d="M106.359 144.836L95.6792 224.965L106.359 231.134V144.836Z" fill="#EF4C00"/>
<path opacity="0.2" d="M106.359 144.836L95.6792 224.965L106.359 231.134V144.836Z" fill="black"/>
<path d="M106.359 231.134L96.5654 218.284L85 218.807L106.359 231.134Z" fill="#EF4C00"/>
<path d="M107.654 140.939C107.654 141.984 108.381 142.416 109.29 141.893C109.768 141.58 110.166 141.158 110.452 140.663C110.738 140.168 110.904 139.613 110.937 139.042C110.937 137.996 110.198 137.565 109.29 138.087C108.813 138.401 108.416 138.823 108.132 139.318C107.848 139.814 107.684 140.369 107.654 140.939V140.939Z" fill="#37474F"/>
<path d="M129.501 128.612C129.501 129.657 130.24 130.089 131.149 129.555C131.627 129.245 132.026 128.826 132.312 128.332C132.599 127.839 132.764 127.285 132.796 126.715C132.796 125.67 132.057 125.238 131.149 125.761C130.67 126.073 130.271 126.495 129.985 126.99C129.699 127.485 129.533 128.041 129.501 128.612V128.612Z" fill="#37474F"/>
<path d="M109.29 139.746C109.146 139.743 109.009 139.685 108.908 139.583C108.806 139.481 108.748 139.344 108.745 139.201V125.738C108.745 119.864 113.766 112.196 119.947 108.628C123.355 106.64 126.649 106.254 128.91 107.56C130.717 108.594 131.705 110.617 131.705 113.241V126.874C131.702 127.02 131.642 127.158 131.538 127.26C131.434 127.362 131.294 127.419 131.148 127.419C131.004 127.419 130.865 127.362 130.763 127.26C130.661 127.157 130.603 127.019 130.603 126.874V113.241C130.603 110.969 129.819 109.333 128.331 108.492C126.422 107.356 123.548 107.776 120.469 109.56C114.596 112.968 109.813 120.194 109.813 125.715V139.201C109.81 139.341 109.755 139.474 109.658 139.576C109.561 139.677 109.43 139.737 109.29 139.746Z" fill="#37474F"/>
<path d="M123.889 150.187C123.889 151.232 124.627 151.652 125.536 151.13C126.015 150.819 126.414 150.4 126.7 149.907C126.986 149.413 127.152 148.859 127.183 148.289C127.183 147.244 126.445 146.813 125.536 147.335C125.057 147.648 124.658 148.069 124.372 148.564C124.086 149.06 123.92 149.616 123.889 150.187V150.187Z" fill="#455A64"/>
<path d="M145.77 137.86C145.77 138.905 146.508 139.326 147.417 138.803C147.896 138.493 148.295 138.074 148.581 137.58C148.867 137.087 149.033 136.532 149.065 135.963C149.065 134.906 148.326 134.486 147.417 135.008C146.937 135.32 146.537 135.741 146.251 136.236C145.965 136.732 145.8 137.288 145.77 137.86V137.86Z" fill="#455A64"/>
<path d="M125.559 148.994C125.418 148.991 125.284 148.934 125.185 148.834C125.085 148.735 125.028 148.601 125.025 148.46V134.974C125.025 129.112 130.046 121.444 136.227 117.933C139.635 115.945 142.93 115.559 145.191 116.865C146.986 117.899 147.974 119.921 147.974 122.546V136.179C147.976 136.251 147.963 136.323 147.936 136.391C147.909 136.458 147.869 136.52 147.818 136.572C147.768 136.624 147.707 136.665 147.64 136.693C147.573 136.721 147.501 136.735 147.429 136.735C147.356 136.735 147.283 136.721 147.216 136.693C147.148 136.665 147.087 136.624 147.035 136.572C146.983 136.521 146.942 136.459 146.914 136.392C146.886 136.324 146.872 136.252 146.872 136.179V122.546C146.872 120.273 146.099 118.649 144.6 117.808C142.691 116.672 139.828 117.092 136.738 118.876C130.864 122.284 126.093 129.51 126.093 135.02V148.46C126.087 148.6 126.029 148.732 125.93 148.831C125.831 148.93 125.699 148.988 125.559 148.994V148.994Z" fill="#455A64"/>
</svg>
